<svg width="188" height="187" viewBox="0 0 188 187" fill="none" xmlns="http://www.w3.org/2000/svg">
<g clip-path="url(#clip0_11_2599)">
<path d="M181.384 93.4962C184.287 90.1331 186.322 86.1162 187.311 81.7939C188.301 77.4716 188.215 72.9745 187.061 68.6927C185.908 64.4109 183.721 60.4736 180.692 57.2226C177.662 53.9716 173.881 51.5049 169.676 50.0365C170.5 45.6799 170.242 41.189 168.926 36.9537C167.61 32.7183 165.275 28.8662 162.123 25.7318C158.972 22.5973 155.099 20.2751 150.841 18.9666C146.582 17.6581 142.068 17.4028 137.688 18.2229C136.213 14.0393 133.733 10.277 130.465 7.26277C127.196 4.24852 123.238 2.07338 118.932 0.92621C114.627 -0.220964 110.105 -0.305499 105.759 0.679942C101.414 1.66538 97.3757 3.69102 93.9957 6.58097C90.6146 3.69301 86.5762 1.6692 82.2309 0.685117C77.8854 -0.298963 73.3642 -0.213594 69.0595 0.933815C64.7548 2.08122 60.7965 4.25602 57.5281 7.26954C54.2597 10.2831 51.7798 14.0443 50.3036 18.2269C45.924 17.4082 41.4096 17.6646 37.1521 18.974C32.8946 20.2834 29.0226 22.6062 25.8719 25.741C22.7212 28.8757 20.3869 32.7277 19.0716 36.9629C17.7563 41.1981 17.4996 45.6885 18.3239 50.0446C14.1189 51.513 10.3375 53.9797 7.30791 57.2307C4.27827 60.4818 2.09184 64.419 0.938291 68.7008C-0.215254 72.9826 -0.301092 77.4797 0.68825 81.802C1.67759 86.1243 3.71226 90.1412 6.61567 93.5043C3.71138 96.8672 1.67608 100.884 0.68646 105.207C-0.303164 109.53 -0.217251 114.028 0.936799 118.31C2.09085 122.592 4.27813 126.529 7.3088 129.78C10.3395 133.031 14.122 135.497 18.328 136.964C17.503 141.32 17.7594 145.811 19.0748 150.046C20.3903 154.282 22.7251 158.134 25.8766 161.268C29.0282 164.402 32.9011 166.724 37.1593 168.032C41.4175 169.34 45.9323 169.595 50.3118 168.774C51.788 172.956 54.2678 176.717 57.5363 179.731C60.8047 182.744 64.7629 184.919 69.0677 186.067C73.3724 187.214 77.8936 187.299 82.239 186.315C86.5844 185.331 90.6228 183.307 94.0038 180.419C97.3848 183.308 101.423 185.333 105.769 186.317C110.115 187.302 114.637 187.216 118.942 186.068C123.247 184.92 127.206 182.745 130.474 179.73C133.742 176.715 136.221 172.953 137.696 168.769C142.076 169.59 146.59 169.335 150.849 168.026C155.107 166.718 158.979 164.395 162.131 161.261C165.282 158.126 167.617 154.274 168.932 150.039C170.248 145.803 170.504 141.312 169.68 136.956C173.885 135.488 177.667 133.021 180.696 129.77C183.726 126.519 185.913 122.581 187.066 118.299C188.219 114.017 188.304 109.52 187.314 105.198C186.324 100.875 184.288 96.8586 181.384 93.4962Z" fill="#0B1EFE"/>
<path d="M77.1261 129.187L51.0046 103.221C50.0132 102.233 49.4564 100.895 49.4564 99.4992C49.4564 98.1035 50.0132 96.7649 51.0046 95.7773L54.1781 92.6166C55.1711 91.6305 56.5168 91.0766 57.92 91.0766C59.3231 91.0766 60.6689 91.6305 61.6618 92.6166L80.65 111.492L125.369 64.2229C126.331 63.2074 127.659 62.6131 129.061 62.5706C130.464 62.528 131.826 63.0407 132.848 63.996L136.107 67.0554C137.13 68.0127 137.728 69.3345 137.771 70.7304C137.813 72.1262 137.297 73.4818 136.335 74.4993L84.7361 129.07C84.2503 129.585 83.6653 129.998 83.0159 130.283C82.3666 130.569 81.6661 130.722 80.9562 130.733C80.2462 130.744 79.5413 130.613 78.8833 130.347C78.2254 130.082 77.6278 129.687 77.1261 129.187Z" fill="white"/>
</g>
<defs>
<clipPath id="clip0_11_2599">
<rect width="188" height="187" fill="white"/>
</clipPath>
</defs>
</svg>
